<?xml version="1.0" encoding="UTF-8" standalone="no"?>
<!-- Created with Inkscape (http://www.inkscape.org/) -->
<svg xmlns:rdf="http://www.w3.org/1999/02/22-rdf-syntax-ns#" xmlns="http://www.w3.org/2000/svg" version="1.1" xmlns:cc="http://creativecommons.org/ns#" xmlns:dc="http://purl.org/dc/elements/1.1/" viewBox="0 0 721.85 205.77">
 <defs></defs>
 <metadata>
  <rdf:RDF>
   <cc:Work rdf:about="">
    <dc:format>image/svg+xml</dc:format>
    <dc:type rdf:resource="http://purl.org/dc/dcmitype/StillImage"/>
    <dc:title/>
   </cc:Work>
  </rdf:RDF>
 </metadata>
 <g transform="translate(-10.908394,-12.131825)">
  <g transform="matrix(2.655349,0,0,2.655349,-373.87395,-620.19124)">
   <g stroke-linejoin="round" font-size="56.25018311px" font-family="Sans" font-weight="normal" style="letter-spacing:0px;word-spacing:0px;" stroke="#000" stroke-miterlimit="4" font-style="normal" stroke-width="0.30000001" line-height="125%" fill="#FFF">
    <path d="m156.03,269.84c2.0813-5.5688,6.8625-12.656,7.65-12.656,0.50625,0,0.95625,2.4188,0.95625,5.0063,0,5.2875-2.5875,9.8438-5.6813,9.8438-1.35,0-2.3625-0.7875-2.925-2.1938m2.025-11.7c0.0563-0.9,0.50625-4.6688,0.50625-5.4563,0-1.6875-0.95625-2.6438-2.6438-2.6438-5.9625,0-10.856,21.994-10.856,30.544,0,3.7125,1.1812,5.85,3.3188,5.85,0.5625,0,0.95625-0.16875,1.4062-0.5625,1.2938-1.0688,2.7-5.3438,5.0063-12.825,1.4062,2.5875,3.0375,3.6563,5.7375,3.6563,6.8625,0,13.444-8.3813,13.444-17.156,0-6.1313-2.7563-10.069-7.0313-10.069-3.4875,0-5.2875,2.5875-7.9313,7.0313l-0.95625,1.6312"/>
    <path d="m196.4,262.58c-3.825,3.825-6.8063,6.1875-7.9313,6.1875-1.2938,0-2.1938-1.4625-2.1938-3.4875,0-4.8938,5.85-11.813,6.975-11.813,0.39375,0,1.1813,1.575,1.1813,3.15,0,1.2938-0.50626,2.925-1.4625,4.3875-0.3375,0.50626-0.45,0.78751-0.45,1.0125,0,0.3375,0.3375,0.5625,1.0125,0.5625,0.95626,0,2.6438-0.45,3.5438-0.73125l-0.67501,0.73125m-1.0688,5.5688c-0.0563,2.5312-0.16875,8.3813,4.2188,8.3813,2.0813,0,3.9938-0.95625,6.1875-3.15-0.61875-1.6312-1.0125-3.2063-1.0125-7.1438,0-1.0125,0.28125-5.3438,0.28125-6.2438-0.0562-1.575-0.3375-1.8-2.25-1.8,0.78751-1.2375,1.125-2.25,1.125-3.4313,0-2.925-3.4313-5.0625-8.0438-5.0625-9.5063,0-19.631,12.038-19.631,19.969,0,4.1625,2.9813,7.2,7.1438,7.2,2.925,0,6.8063-2.8688,11.981-8.7188"/>
    <path d="m227.49,262.58c-3.825,3.825-6.8063,6.1875-7.9313,6.1875-1.2938,0-2.1938-1.4625-2.1938-3.4875,0-4.8938,5.85-11.813,6.975-11.813,0.39375,0,1.1813,1.575,1.1813,3.15,0,1.2938-0.50626,2.925-1.4625,4.3875-0.3375,0.50626-0.45,0.78751-0.45,1.0125,0,0.3375,0.3375,0.5625,1.0125,0.5625,0.95626,0,2.6438-0.45,3.5438-0.73125l-0.67501,0.73125m-1.0688,5.5688c-0.0563,2.5312-0.16875,8.3813,4.2188,8.3813,2.0813,0,3.9938-0.95625,6.1875-3.15-0.61875-1.6312-1.0125-3.2063-1.0125-7.1438,0-1.0125,0.28125-5.3438,0.28125-6.2438-0.0563-1.575-0.3375-1.8-2.25-1.8,0.78751-1.2375,1.125-2.25,1.125-3.4313,0-2.925-3.4313-5.0625-8.0438-5.0625-9.5063,0-19.631,12.038-19.631,19.969,0,4.1625,2.9813,7.2,7.1438,7.2,2.925,0,6.8063-2.8688,11.981-8.7188"/>
    <path d="m265.25,257.69c0-1.8562-0.84376-2.9813-2.3063-2.9813-3.4875,0-9.1688,5.4563-12.206,8.55,1.7438-14.063,6.4125-21.769,7.3688-21.769,0.28125,0,0.28125,0.7875,0.28125,1.4625,0,2.7562-1.4062,7.5938-3.2625,11.138-0.45,0.7875-0.73125,1.5188-0.73125,1.8,0,0.3375,0.3375,0.675,0.73125,0.675,2.3625,0,9.7313-5.5688,9.7313-11.644,0-3.8813-2.7-6.4688-6.6938-6.4688-3.2062,0-6.3563,2.1938-9,6.2438-3.0375,4.725-9.2813,17.438-9.2813,25.875,0,3.4312,1.125,5.7938,2.7,5.7938,1.9125,0,4.275-1.5188,7.5938-4.725,1.8562-1.9688,2.4188-2.5313,5.4-5.4-0.225,1.4625-0.28125,2.3063-0.28125,3.0375,0,4.275,1.8,7.0875,4.5,7.0875,2.4188,0,6.2438-2.0812,6.2438-2.8688,0-0.84375-1.6313-4.95-1.6313-7.5375,0-2.3062,0.84376-6.6938,0.84376-8.2688"/>
    <path d="m272.79,276.42c1.9688,0,2.8125-1.2938,3.5438-3.2063,2.3625-6.4125,3.7688-13.05,3.7688-17.888,0-3.2063-1.4062-5.2875-3.5438-5.2875-0.9,0-1.7438,0.3375-2.3062,1.0688-2.8688,3.375-5.5125,12.375-5.5125,18.506,0,6.1313,3.375,6.75,4.05,6.8063m3.2625-27.619c2.6438,0,4.8938-3.7688,4.8938-7.5375,0-2.0812-0.78751-2.9813-2.6438-2.9813-1.0688,0-1.6313,0.225-2.3063,0.95625-1.2938,1.2938-2.475,4.3875-2.475,6.4688,0,2.025,0.84376,3.0375,2.5313,3.0938"/>
    <path d="m293.6,261.63c0.7875-3.4313,1.125-5.85,1.125-7.875,0-2.4188-1.0125-3.7125-2.8688-3.7125-1.1812,0-2.1375,0.39375-2.9813,1.2375-3.8813,4.05-6.9188,16.875-6.9188,21.094,0,2.8125,1.6313,4.725,3.9375,4.725,0.84376,0,1.575-0.33751,2.3063-1.0125,3.6-3.9938,4.725-6.4125,10.125-11.813-0.28125,1.9125-0.3375,2.8125-0.3375,3.8813,0,4.8375,2.3063,8.325,5.5125,8.325,1.575,0,4.95-1.4062,4.95-2.5312,0-0.73126-0.61876-2.7563-0.73126-3.2625-0.16875-1.0125-0.39375-2.7563-0.39375-4.6125,0-3.375,0.5625-6.9188,0.5625-8.3813,0-3.375-0.95625-4.6688-3.5438-4.6688-2.3625,0-4.3875,1.5188-9,6.6938l-1.7438,1.9125"/>
    <path d="m325.76,255.21c0,1.1812-0.33751,6.8625-3.6,10.969-0.50626,0.61875-0.95626,1.0125-1.9688,1.6875-0.0562-0.73125-0.0562-1.1813-0.0562-1.6313,0-4.5563,3.7688-12.544,5.0063-12.544,0.39375,0,0.61875,0.5625,0.61875,1.5188m7.2,0.61875c0-3.825-2.0813-6.1313-5.5125-6.1313-3.9938,0-9.3375,2.7-12.825,7.9313-2.3625,3.6563-3.9938,8.2688-3.9938,11.531,0,4.4438,2.925,7.2,7.4813,7.2,6.2438,0,14.513-7.2,14.513-8.4375,0-0.61875-1.1812-1.35-2.25-1.35-0.45,0-1.35,0.50626-2.5875,1.4063-2.1938,1.575-3.9938,2.4188-5.3438,2.4188-1.2938-0.0563-2.025-0.61875-2.1375-1.6875,0.45,0.28125,0.675,0.3375,1.1812,0.3375,3.7688,0,11.475-6.9188,11.475-13.219"/>
    <path d="m333.09,276.19c0.95625,0,2.475-0.39375,3.825-0.9,1.125-0.45,1.4625-0.7875,1.8563-1.8563,0.61875-1.575,1.0688-3.5438,1.0688-4.5563,0-1.2938-0.5625-1.9688-1.6875-1.9688-1.6313,0-4.1063,0.84376-5.175,1.8-1.2375,1.125-2.3625,4.5563-2.3625,5.7938,0,1.0688,0.84376,1.6875,2.475,1.6875"/>
    <path d="m356.33,261.63c0.7875-3.4313,1.125-5.85,1.125-7.875,0-2.4188-1.0125-3.7125-2.8688-3.7125-1.1812,0-2.1375,0.39375-2.9813,1.2375-3.8812,4.05-6.9188,16.875-6.9188,21.094,0,2.8125,1.6313,4.725,3.9375,4.725,0.84375,0,1.575-0.33751,2.3062-1.0125,3.6-3.9938,4.725-6.4125,10.125-11.813-0.28126,1.9125-0.33751,2.8125-0.33751,3.8813,0,4.8375,2.3063,8.325,5.5125,8.325,1.575,0,4.95-1.4062,4.95-2.5312,0-0.73126-0.61875-2.7563-0.73125-3.2625-0.16875-1.0125-0.39376-2.7563-0.39376-4.6125,0-3.375,0.56251-6.9188,0.56251-8.3813,0-3.375-0.95626-4.6688-3.5438-4.6688-2.3625,0-4.3875,1.5188-9,6.6938l-1.7438,1.9125"/>
    <path d="m388.49,255.21c0,1.1812-0.3375,6.8625-3.6,10.969-0.50625,0.61875-0.95626,1.0125-1.9688,1.6875-0.0562-0.73125-0.0562-1.1813-0.0562-1.6313,0-4.5563,3.7688-12.544,5.0063-12.544,0.39375,0,0.61875,0.5625,0.61875,1.5188m7.2,0.61875c0-3.825-2.0813-6.1313-5.5125-6.1313-3.9938,0-9.3375,2.7-12.825,7.9313-2.3625,3.6563-3.9938,8.2688-3.9938,11.531,0,4.4438,2.925,7.2,7.4813,7.2,6.2438,0,14.513-7.2,14.513-8.4375,0-0.61875-1.1812-1.35-2.25-1.35-0.45,0-1.35,0.50626-2.5875,1.4063-2.1938,1.575-3.9938,2.4188-5.3438,2.4188-1.2938-0.0563-2.025-0.61875-2.1375-1.6875,0.45,0.28125,0.675,0.3375,1.1813,0.3375,3.7688,0,11.475-6.9188,11.475-13.219"/>
    <path d="m404.68,250.43c-2.475,0.50625-4.4438,2.8125-4.4438,5.1188,0,1.35,0.5625,1.9125,2.025,1.9125-0.16875,0.7875-0.225,0.95626-0.61876,2.25-1.35,4.7813-1.9125,7.65-1.9125,9.5625,0,4.275,2.5875,7.0875,6.4688,7.0875,4.5563,0,8.2125-4.2188,8.2125-5.1188,0-0.1125-0.16876-0.16875-0.50626-0.16875-2.925,0-4.4438-1.2938-4.4438-4.3313,0-2.7,0.61875-6.8625,1.5188-9.5063,1.4625-0.1125,2.1375-0.225,2.925-0.5625,1.6313-0.73125,2.7-2.5313,2.7-4.5,0-1.2938-0.61875-1.35-3.6-1.8563,0.5625-2.25,1.1813-4.1063,2.0813-6.075,0.5625-1.2938,0.84375-2.1375,0.84375-2.5875,0-1.1812-0.84375-1.9125-2.25-1.9125-1.6312,0-4.5,1.125-5.7375,3.0938-1.4062,2.1938-2.8125,6.3-3.2625,7.5938"/>
   </g>
   <path d="m190.36,284.91c-11.456,0.0601-18.759,14.683-11.909,23.877,3.9566,6.5683,11.912,7.0992,18.763,6.752,59.757-0.0527,119.52,0.10535,179.27-0.0791,11.107-0.63673,17.766-14.861,11.133-23.798-3.9397-6.5378-11.858-7.1049-18.686-6.752h-178.57z"/>
   <g style="letter-spacing:0px;word-spacing:0px;" font-weight="normal" transform="matrix(0.79231654,0,0,0.59854161,68.636917,131.94246)" font-size="30.48868179px" font-style="normal" font-family="Sans" line-height="125%" fill="#FFF">
    <path fill="#FFF" d="m377.51,269.26c-0.54879,0-2.1037,0.0305-2.1037,2.1342v22.867c0,0.33538,0.2744,0.60978,0.60978,0.60978h3.6282c0.33538,0,0.60977-0.2744,0.60977-0.60978v-8.4149h1.4635v8.4149c0,0.33538,0.2744,0.60978,0.60977,0.60978h3.6282c0.33537,0,0.60977-0.2744,0.60977-0.60978v-22.988c0-1.9818-1.4939-2.0122-2.0427-2.0122h-7.0124m2.744,3.933,1.4635,0,0,8.7502-1.4635,0,0-8.7502m-14.304-1.7988c0-2.1037-1.5549-2.1342-2.1037-2.1342h-7.9576c-0.33537,0-0.60977,0.27439-0.60977,0.60977v24.391c0,0.33538,0.2744,0.60978,0.60977,0.60978h3.6282c0.33537,0,0.60977-0.2744,0.60977-0.60978v-5.7928h3.6891c0.5488,0,2.1342-0.00001,2.1342-2.1342v-14.939m-5.8233,1.7988,1.4635,0,0,11.342-1.4635,0,0-11.342m-14.304-1.7988c0-2.1037-1.5549-2.1342-2.1037-2.1342h-7.9576c-0.33537,0-0.60977,0.27439-0.60977,0.60977v24.391c0,0.33538,0.2744,0.60978,0.60977,0.60978h3.6282c0.33537,0,0.60977-0.2744,0.60977-0.60978v-5.7928h3.6891c0.5488,0,2.1342-0.00001,2.1342-2.1342v-14.939m-5.8233,1.7988,1.4635,0,0,11.342-1.4635,0,0-11.342m-25.511,19.543c0,2.1342,1.5854,2.1342,2.1342,2.1342h8.4454c0.33538,0,0.60977-0.2744,0.60977-0.60978v-24.33c-0.0305-0.33538-0.30488-0.60978-0.64026-0.60978h-3.6282c-0.33538,0-0.60978,0.2744-0.60978,0.60978v21.007h-1.4634v-21.068c0-0.33538-0.2744-0.60977-0.60978-0.60977h-3.6282c-0.33537,0-0.60977,0.27439-0.60977,0.60977v22.867m-18.56-23.476c-0.5488,0-2.1037,0.0305-2.1037,2.1342v22.867c0,0.33538,0.2744,0.60978,0.60977,0.60978h3.6282c0.33537,0,0.60977-0.2744,0.60977-0.60978v-8.4149h1.4635v8.4149c0,0.33538,0.27439,0.60978,0.60977,0.60978h3.6282c0.33538,0,0.60978-0.2744,0.60978-0.60978v-22.988c0-1.9818-1.494-2.0122-2.0428-2.0122h-7.0124m2.744,3.933,1.4635,0,0,8.7502-1.4635,0,0-8.7502m-14.323,6.5856,0-9.9088c0-0.33538-0.2744-0.60977-0.60977-0.60977h-3.5977c-0.33537,0.0305-0.60977,0.30488-0.60977,0.64026v10.153h-1.494v-10.183c0-0.33538-0.27439-0.60977-0.60977-0.60977h-3.5977c-0.33538,0-0.60978,0.27439-0.60978,0.60977v24.391c0,0.33538,0.2744,0.60978,0.60978,0.60978h3.5977c0.33538,0,0.60977-0.2744,0.60977-0.60978v-10.275h1.494v10.275c0,0.33538,0.2744,0.60978,0.60977,0.60978h3.5977c0.36586,0,0.60977-0.2744,0.60977-0.57929v-10.092c0-2.1342-1.5244-2.1342-2.0732-2.1342v-0.15244c0.5488,0,2.0732,0,2.0732-2.1342m-31.792,12.958c0,2.1037,1.5549,2.1342,2.1037,2.1342h6.9819c0.5488,0,2.1037-0.0305,2.1037-2.1342v-21.342c0-2.1037-1.5549-2.1342-2.1037-2.1342h-7.0124c-0.57928,0-2.0732,0.061-2.0732,2.1342v21.342m6.3112-1.7988-1.4635,0,0-17.744,1.4635,0,0,17.744m-15.786-11.159,0-9.9088c0-0.33538-0.2744-0.60977-0.60978-0.60977h-3.5977c-0.33538,0.0305-0.60978,0.30488-0.60978,0.64026v10.153h-1.4939v-10.183c0-0.33538-0.2744-0.60977-0.60978-0.60977h-3.5977c-0.33538,0-0.60977,0.27439-0.60977,0.60977v24.391c0,0.33538,0.27439,0.60978,0.60977,0.60978h3.5977c0.33538,0,0.60978-0.2744,0.60978-0.60978v-10.275h1.4939v10.275c0,0.33538,0.2744,0.60978,0.60978,0.60978h3.5977c0.36587,0,0.60978-0.2744,0.60978-0.57929v-10.092c0-2.1342-1.5244-2.1342-2.0732-2.1342v-0.15244c0.5488,0,2.0732,0,2.0732-2.1342m-20.604,0,0-9.9088c0-0.33538-0.2744-0.60977-0.60978-0.60977h-3.5977c-0.33538,0.0305-0.60978,0.30488-0.60978,0.64026v10.153h-1.4939v-10.183c0-0.33538-0.2744-0.60977-0.60978-0.60977h-3.5977c-0.33537,0-0.60977,0.27439-0.60977,0.60977v24.391c0,0.33538,0.2744,0.60978,0.60977,0.60978h3.5977c0.33538,0,0.60978-0.2744,0.60978-0.60978v-10.275h1.4939v10.275c0,0.33538,0.2744,0.60978,0.60978,0.60978h3.5977c0.36587,0,0.60978-0.2744,0.60978-0.57929v-10.092c0-2.1342-1.5244-2.1342-2.0732-2.1342v-0.15244c0.54879,0,2.0732,0,2.0732-2.1342m-20.572-8.3844c0-2.1037-1.5549-2.1342-2.1037-2.1342h-8.5064c-0.33537,0-0.60977,0.27439-0.60977,0.60977v24.391c0,0.33538,0.2744,0.60978,0.60977,0.60978h3.6282c0.33537,0,0.60977-0.2744,0.60977-0.60978v-10.244h1.4635v10.244c0,0.33538,0.2744,0.60978,0.60977,0.60978h3.6282c0.33538,0,0.60978-0.2744,0.60978-0.60978v-9.8783c0-2.1342-1.5244-2.1342-2.0732-2.1342v-0.15244c0.54879,0,2.1342,0,2.1342-2.1342v-8.5673m-6.3721,1.7988,1.4635,0,0,6.9209-1.4635,0,0-6.9209m-24.439,21.068c0,0.33538,0.2744,0.60978,0.60977,0.60978h8.9027c0.33537,0,0.60977-0.2744,0.60977-0.60978v-2.7135c-0.0305-0.33537-0.30489-0.60977-0.64026-0.60977h-4.6343v-7.2258h3.1403c0.33538,0,0.60978-0.2744,0.60978-0.60977v-2.9879c0-0.33538-0.2744-0.60978-0.60978-0.60978h-3.1403v-6.3112h4.6343c0.33537,0,0.60977-0.2744,0.60977-0.60978v-2.7135c0-0.36586-0.2744-0.60977-0.57928-0.60977h-8.9027c-0.33537,0-0.60977,0.27439-0.60977,0.60977v24.391m-20.306-25.001c-0.33538,0-0.60977,0.27439-0.60977,0.60977l2.7135,24.452c0.0305,0.33538,0.2744,0.5488,0.60977,0.5488h5.427c0.33537,0,0.57928-0.21342,0.60977-0.5488l2.7135-24.391c0-0.39636-0.2744-0.67075-0.60977-0.67075h-3.6282c-0.33538,0-0.57929,0.21342-0.60978,0.54879l-1.0671,17.927h-0.24391l-1.0671-17.927c-0.0305-0.33537-0.2744-0.54879-0.60978-0.54879h-3.6282"/>
   </g>
   <path stroke-linejoin="round" d="m375.22,300.75,0.83231,0,0,1.3872-0.83231,0z" stroke="#000" stroke-miterlimit="4" stroke-width="0.22971572" fill="#000"/>
  </g>
 </g>
</svg>
