<?xml version="1.0" encoding="UTF-8" standalone="no"?>
<svg xmlns:rdf="http://www.w3.org/1999/02/22-rdf-syntax-ns#" xmlns="http://www.w3.org/2000/svg" version="1.1" xmlns:cc="http://creativecommons.org/ns#" xmlns:dc="http://purl.org/dc/elements/1.1/" viewBox="0 0 734.24 861.4">
 <metadata>
  <rdf:RDF>
   <cc:Work rdf:about="">
    <dc:format>image/svg+xml</dc:format>
    <dc:type rdf:resource="http://purl.org/dc/dcmitype/StillImage"/>
    <dc:title/>
   </cc:Work>
  </rdf:RDF>
 </metadata>
 <flowRoot style="letter-spacing:0px;word-spacing:0px;" font-family="Sans" transform="matrix(3.5414793,0,0,3.5414793,-81.166812,-1017.6645)" xml:space="preserve" font-size="40px" font-style="normal" font-weight="normal" line-height="125%" fill="#000000"><flowRegion><rect y="-4.7807" x="-497.14" width="1200" height="688.57"/></flowRegion></flowRoot>
 <g transform="translate(0.18761933,-0.32075253)">
  <path d="M719.82,570.79c2.81,132.4-102.98,255.55-234.17,273.06-128.53,22.42-264.27-60.24-303.8-184.46-44.28-123.04,13.97-271.37,130.06-331.5,113.82-64.587,270.26-32.206,349,72.353,38.059,48.126,59.145,109.19,58.919,170.55z" stroke="#000" stroke-miterlimit="4" stroke-width="28.33183479" fill="#FF0"/>
  <path fill="#000" d="m415.26,553.94c2.5538,49.098-62.642,79.842-98.904,46.647-39.247-29.109-22.024-98.473,26.27-105.87,36.255-8.4336,73.609,21.998,72.634,59.223z"/>
  <path fill="#000" d="m594.32,524.86c2.5538,49.098-62.642,79.842-98.904,46.647-39.247-29.109-22.024-98.473,26.27-105.87,36.255-8.4336,73.609,21.998,72.634,59.223z"/>
  <path stroke-linejoin="miter" d="m370.32,706.46c24.438,52.914,101.88,54.413,145.57,25.303,20.041-13.154,35.881-34.393,38.307-58.722" stroke="#000" stroke-linecap="round" stroke-miterlimit="4" stroke-width="14.16591644" fill="none"/>
  <path fill="#000" d="M395.79,97.16c-145.08-2.949-280.59,110.69-303.53,253.86-10.317,57.52-4.023,117.96,18.368,171.96,197.29-49.94,394.57-99.89,591.86-149.84-12.4-144.55-139.58-267.63-284.48-275.2-7.3945-0.52549-14.809-0.79143-22.221-0.78473z"/>
  <path fill="#000" d="M244.27,243.34c2.79,76.9-78.88,140.16-152.66,118.29-74.73-16.53-115.73-110.52-76.87-176.51,34.033-68.36,134.84-85.544,189.51-32.19,25.282,22.746,40.23,56.382,40.014,90.406z"/>
  <path fill="#000" d="M629.52,122.13c2.79,76.9-78.87,140.17-152.66,118.29-74.72-16.53-115.73-110.51-76.87-176.5,34.04-68.363,134.84-85.545,189.52-32.19,25.282,22.746,40.23,56.382,40.014,90.406z"/>
 </g>
</svg>
